<?xml version="1.0" encoding="UTF-8" standalone="no"?>
<!-- Created with Inkscape (http://www.inkscape.org/) -->

<svg
   xmlns:dc="http://purl.org/dc/elements/1.1/"
   xmlns:cc="http://creativecommons.org/ns#"
   xmlns:rdf="http://www.w3.org/1999/02/22-rdf-syntax-ns#"
   xmlns:svg="http://www.w3.org/2000/svg"
   xmlns="http://www.w3.org/2000/svg"
   xmlns:sodipodi="http://sodipodi.sourceforge.net/DTD/sodipodi-0.dtd"
   xmlns:inkscape="http://www.inkscape.org/namespaces/inkscape"
   width="5.1006341cm"
   height="1.3989824cm"
   viewBox="0 0 51.00634 13.989825"
   version="1.1"
   id="svg966"
   inkscape:version="0.92.4 (unknown)"
   sodipodi:docname="fast-flow-black.svg">
  <defs
     id="defs960" />
  <sodipodi:namedview
     id="base"
     pagecolor="#ffffff"
     bordercolor="#666666"
     borderopacity="1.0"
     inkscape:pageopacity="0.0"
     inkscape:pageshadow="2"
     inkscape:zoom="3.959798"
     inkscape:cx="125.03445"
     inkscape:cy="0.22319613"
     inkscape:document-units="mm"
     inkscape:current-layer="g9509"
     showgrid="false"
     inkscape:window-width="1890"
     inkscape:window-height="1051"
     inkscape:window-x="30"
     inkscape:window-y="0"
     inkscape:window-maximized="1"
     fit-margin-top="0.1"
     fit-margin-left="0.1"
     fit-margin-right="0.1"
     fit-margin-bottom="0.1"
     units="cm" />
  <metadata
     id="metadata963">
    <rdf:RDF>
      <cc:Work
         rdf:about="">
        <dc:format>image/svg+xml</dc:format>
        <dc:type
           rdf:resource="http://purl.org/dc/dcmitype/StillImage" />
        <dc:title></dc:title>
      </cc:Work>
    </rdf:RDF>
  </metadata>
  <g
     inkscape:label="Layer 1"
     inkscape:groupmode="layer"
     id="layer1"
     transform="translate(-17.160837,-30.765705)">
    <g
       id="g9509"
       transform="translate(3.7041668,8.1060252)">
      <path
         inkscape:connector-curvature="0"
         id="rect881"
         d="m 17.08284,25.116944 a 0.76609969,0.90830966 47.436042 0 0 -0.97514,0.83044 0.76609969,0.90830966 47.436042 0 0 -0.001,0.004 l -1.65003,9.69812 0.14263,-0.83406 a 0.76609969,0.90830966 47.436042 0 0 0.69194,0.83406 h 24.69307 a 0.76609969,0.90830966 47.436042 0 0 0.973069,-0.82063 l 1.510501,-8.87749 a 0.76609969,0.90830966 47.436042 0 0 -0.691949,-0.83406 z"
         style="opacity:1;vector-effect:none;fill:#ec7f00;fill-opacity:1;stroke:none;stroke-width:6.21999979;stroke-linecap:round;stroke-linejoin:round;stroke-miterlimit:4;stroke-dasharray:none;stroke-dashoffset:0;stroke-opacity:1;paint-order:markers stroke fill" />
      <path
         inkscape:connector-curvature="0"
         id="path886"
         d="m 31.12179,28.576494 -0.69195,0.63097 -0.87074,0.7891 -1.25574,0.006 -1.25522,0.006 -0.11317,0.0512 c -0.13085,0.0592 -0.24977,0.18145 -0.31523,0.32401 -0.0646,0.14071 -0.0623,0.38204 0.006,0.5364 0.0615,0.13989 0.21632,0.28773 0.35864,0.34262 0.1022,0.0394 0.18089,0.0413 1.65054,0.0413 1.40898,0 1.55605,-0.003 1.68207,-0.0382 0.1936,-0.0535 0.73476,-0.57931 1.05627,-0.9033 a 2.2427811,2.625209 53.454386 0 1 -0.31575,-1.49965 2.2427811,2.625209 53.454386 0 1 0.0646,-0.28629 z"
         style="opacity:1;fill:#030303;fill-opacity:1;stroke-width:1" />
      <path
         inkscape:connector-curvature="0"
         id="path888"
         d="m 37.75439,25.965434 c -0.0634,0.001 -0.12673,0.0142 -0.18655,0.0413 -0.0588,0.0267 -0.30333,0.25786 -0.75551,0.71365 l -0.57051,0.57516 -0.31316,0.31885 a 2.2427811,2.625209 53.454386 0 1 0.10335,1.0542 c 0.28554,-0.13046 0.69021,-0.35776 1.05059,-0.72554 0.97418,-0.99415 1.11499,-1.14312 1.15652,-1.22112 0.0585,-0.1099 0.0556,-0.34895 -0.006,-0.4656 -0.098,-0.18559 -0.288899,-0.29404 -0.479039,-0.29094 z"
         style="opacity:1;fill:#030303;fill-opacity:1;stroke-width:1" />
      <path
         inkscape:connector-curvature="0"
         id="path890"
         d="m 32.42145,25.762924 c -0.86064,-0.004 -1.33041,0.002 -1.40198,0.017 -0.0592,0.0127 -0.14106,0.0485 -0.1819,0.0796 -0.097,0.074 -1.84676,2.11876 -1.90324,2.22416 -0.0297,0.0555 -0.0434,0.12195 -0.0434,0.21187 0,0.33327 0.27152,0.56519 0.59118,0.50488 0.17454,-0.0329 0.17328,-0.0314 1.08727,-1.10484 l 0.76739,-0.90124 h 0.45217 0.64648 a 2.2427811,2.625209 53.454386 0 1 1.46347,-0.4222 2.2427811,2.625209 53.454386 0 1 0.21291,0.0103 l -0.39584,-0.61392 z"
         style="opacity:1;fill:#030303;fill-opacity:1;stroke-width:1" />
      <path
         id="path992"
         d="m 30.28927,32.282934 c 0,0 -0.0212,0.30683 -0.0212,0.42323 0,1.143 0.87875,1.94716 2.19108,1.94716 0.0821,0 0.16271,-0.01 0.24391,-0.0181 l 0.3266,-1.42524 c -0.0734,0.0192 -0.17793,0.0383 -0.33797,0.0465 -0.47569,0.0243 -0.89968,-0.28571 -0.89968,-0.75138 0,-0.0635 0.0109,-0.2222 0.0109,-0.2222 z"
         style="font-style:italic;font-variant:normal;font-weight:bold;font-stretch:normal;font-size:10.58333302px;line-height:89.99999762%;font-family:'TeX Gyre Adventor';-inkscape-font-specification:'TeX Gyre Adventor, Bold Italic';font-variant-ligatures:normal;font-variant-caps:normal;font-variant-numeric:normal;font-feature-settings:normal;text-align:start;letter-spacing:0px;word-spacing:0px;writing-mode:lr-tb;text-anchor:start;fill:#ffffff;fill-opacity:1;stroke:none;stroke-width:0.26458332px;stroke-linecap:butt;stroke-linejoin:miter;stroke-opacity:1"
         inkscape:connector-curvature="0" />
      <path
         sodipodi:nodetypes="cccccccccccccc"
         style="fill:#000000;stroke-width:1"
         d="m 33.35636,35.450834 c 0.17784,-0.0581 0.33348,-0.19865 0.40224,-0.3633 0.0161,-0.0386 0.21572,-0.91483 0.44358,-1.94722 0.36738,-1.66452 0.41336,-1.8943 0.40606,-2.02924 -0.0155,-0.28632 -0.0385,-0.31722 -0.82859,-1.11259 l -0.98427,-0.2874 -1.18022,0.56764 0.77548,0.76111 c 0.42651,0.41861 0.7755,0.76782 0.77554,0.77602 5e-5,0.008 -0.14644,0.67364 -0.32552,1.47875 -0.35621,1.60147 -0.35345,1.58165 -0.25104,1.80535 0.0615,0.13428 0.17778,0.25447 0.30659,0.31682 0.11939,0.0578 0.33847,0.0741 0.46059,0.0342 z"
         id="path2898"
         inkscape:connector-curvature="0" />
      <path
         inkscape:connector-curvature="0"
         id="path956"
         d="m 36.02358,26.287264 c 0.32954,-0.0863 0.59389,-0.27327 0.78005,-0.55159 0.29317,-0.43833 0.30183,-1.02218 0.0216,-1.45578 -0.56752,-0.87805 -1.85678,-0.8112 -2.32537,0.12058 -0.0941,0.18717 -0.13385,0.36285 -0.13385,0.59193 0,0.52084 0.2739,0.96498 0.74112,1.20174 0.26268,0.1331 0.6238,0.1698 0.91647,0.0931 z"
         style="fill:#030303;fill-opacity:1;stroke-width:1" />
      <path
         id="path1008"
         d="m 28.85237,31.534204 c -0.837,0.004 -11.13759,0.005 -11.97459,0.009 l -0.11315,0.0373 c -0.13085,0.0432 -0.24986,0.13226 -0.31532,0.23619 -0.0646,0.10258 -0.062,0.27833 0.006,0.39085 0.0615,0.10198 0.21613,0.20972 0.35845,0.24973 0.1022,0.0288 12.03861,0.0302 12.03861,0.0302 z"
         style="opacity:0.38200001;fill:#030303;fill-opacity:1;stroke-width:1"
         inkscape:connector-curvature="0"
         sodipodi:nodetypes="cccccccc" />
      <path
         sodipodi:nodetypes="cccccccc"
         inkscape:connector-curvature="0"
         style="opacity:0.38200001;fill:#030303;fill-opacity:1;stroke-width:1"
         d="m 26.39554,29.341964 c -0.837,0.004 -6.56408,0.005 -7.401079,0.009 l -0.113151,0.0374 c -0.13085,0.0432 -0.24986,0.13226 -0.31532,0.23619 -0.0646,0.10257 -0.062,0.27833 0.006,0.39085 0.0615,0.10198 0.21613,0.20972 0.35845,0.24974 0.1022,0.0287 7.4651,0.0302 7.4651,0.0302 z"
         id="path1010" />
      <path
         id="path1012"
         d="m 29.51923,27.149714 c -0.837,0.004 -11.80445,0.005 -12.64145,0.009 l -0.11315,0.0373 c -0.13085,0.0432 -0.24986,0.13227 -0.31532,0.2362 -0.0646,0.10257 -0.062,0.27833 0.006,0.39085 0.0615,0.10198 0.21613,0.20972 0.35845,0.24973 0.1022,0.0287 11.85021,0.0303 11.85021,0.0303 z"
         style="opacity:0.38200001;fill:#030303;fill-opacity:1;stroke-width:1"
         inkscape:connector-curvature="0"
         sodipodi:nodetypes="cccccccc" />
      <path
         inkscape:connector-curvature="0"
         id="path986"
         style="font-style:italic;font-variant:normal;font-weight:bold;font-stretch:normal;font-size:10.58333302px;line-height:89.99999762%;font-family:'TeX Gyre Adventor';-inkscape-font-specification:'TeX Gyre Adventor, Bold Italic';font-variant-ligatures:normal;font-variant-caps:normal;font-variant-numeric:normal;font-feature-settings:normal;text-align:start;letter-spacing:0px;word-spacing:0px;writing-mode:lr-tb;text-anchor:start;fill:#fefefe;fill-opacity:1;stroke:none;stroke-width:0.26458332px;stroke-linecap:butt;stroke-linejoin:miter;stroke-opacity:1"
         d="m 19.22717,34.750984 h 1.44992 l 0.592671,-3.20675 h 2.413 l 0.254,-1.397 h -2.413 l 0.34925,-1.82033 h 2.52941 l 0.253999,-1.397 h -3.97933 z" />
      <path
         inkscape:connector-curvature="0"
         id="path988"
         style="font-style:italic;font-variant:normal;font-weight:bold;font-stretch:normal;font-size:10.58333302px;line-height:89.99999762%;font-family:'TeX Gyre Adventor';-inkscape-font-specification:'TeX Gyre Adventor, Bold Italic';font-variant-ligatures:normal;font-variant-caps:normal;font-variant-numeric:normal;font-feature-settings:normal;text-align:start;letter-spacing:0px;word-spacing:0px;writing-mode:lr-tb;text-anchor:start;fill:#fefefe;fill-opacity:1;stroke:none;stroke-width:0.26458332px;stroke-linecap:butt;stroke-linejoin:miter;stroke-opacity:1"
         d="m 22.17115,34.774604 h 1.59809 l 1.23825,-2.02141 h 2.78341 l 0.46567,2.02141 h 1.59808 l -1.83091,-7.82108 h -1.143 z m 3.63009,-3.41841 1.27,-2.36009 0.40216,2.36009 z" />
      <path
         sodipodi:nodetypes="ccccccccccccc"
         inkscape:connector-curvature="0"
         id="path990"
         style="font-style:italic;font-variant:normal;font-weight:bold;font-stretch:normal;font-size:10.58333302px;line-height:89.99999762%;font-family:'TeX Gyre Adventor';-inkscape-font-specification:'TeX Gyre Adventor, Bold Italic';font-variant-ligatures:normal;font-variant-caps:normal;font-variant-numeric:normal;font-feature-settings:normal;text-align:start;letter-spacing:0px;word-spacing:0px;writing-mode:lr-tb;text-anchor:start;fill:#fefefe;fill-opacity:1;stroke:none;stroke-width:0.26458332px;stroke-linecap:butt;stroke-linejoin:miter;stroke-opacity:1"
         d="m 36.39699,28.326904 h 0.25991 1.17942 l -1.19592,6.42408 h 1.44992 l 1.19592,-6.42408 h 1.18585 0.28523 l 0.0653,-0.35889 0.18875,-1.03811 h -4.36033 l -0.19077,1.04923 z" />
      <text
         id="text8825"
         y="34.71796"
         x="42.310898"
         style="font-style:italic;font-variant:normal;font-weight:bold;font-stretch:normal;font-size:10.58333302px;line-height:89.99999762%;font-family:'TeX Gyre Adventor';-inkscape-font-specification:'TeX Gyre Adventor, Bold Italic';font-variant-ligatures:normal;font-variant-caps:normal;font-variant-numeric:normal;font-feature-settings:normal;text-align:start;letter-spacing:0px;word-spacing:0px;writing-mode:lr-tb;text-anchor:start;fill:#000000;fill-opacity:1;stroke:none;stroke-width:0.26458332px;stroke-linecap:butt;stroke-linejoin:miter;stroke-opacity:1"
         xml:space="preserve"><tspan
           style="font-style:italic;font-variant:normal;font-weight:bold;font-stretch:normal;font-size:10.58333302px;font-family:'TeX Gyre Adventor';-inkscape-font-specification:'TeX Gyre Adventor, Bold Italic';font-variant-ligatures:normal;font-variant-caps:normal;font-variant-numeric:normal;font-feature-settings:normal;text-align:start;writing-mode:lr-tb;text-anchor:start;fill:#000000;fill-opacity:1;stroke-width:0.26458332px"
           y="34.71796"
           x="42.310898"
           id="tspan8823"
           sodipodi:role="line">flow</tspan></text>
      <path
         sodipodi:nodetypes="ssccsccsccsscccsss"
         inkscape:connector-curvature="0"
         id="path9075-5"
         d="m 33.89615,26.546614 c -1.41817,0 -2.69854,1.2382 -2.69854,2.60345 0,0.84667 0.40214,1.39742 1.28056,1.74667 0.99483,0.40216 1.0474,0.43372 1.24849,0.60306 0.14816,0.127 0.267411,0.372781 0.23307,0.60307 -0.0515,0.345328 -0.146506,0.55571 -0.324329,0.731654 l -0.338209,1.668265 c 1.251831,-0.377936 2.144098,-1.529244 2.144098,-2.801969 0,-0.92075 -0.47607,-1.47087 -1.64021,-1.90479 -0.60325,-0.22225 -0.66701,-0.25408 -0.80459,-0.34933 -0.1905,-0.13758 -0.31732,-0.34952 -0.31732,-0.54002 0,-0.52917 0.4341,-0.96273 0.96327,-0.96273 0.39478,0 0.60867,0.12505 0.6754,0.51108 0.0156,0.09 0.0227,0.31419 0.0227,0.31419 h 1.492431 c 0,0 0.0424,-0.37064 0.0424,-0.49764 -1e-6,-0.98425 -0.846791,-1.72496 -1.979211,-1.72496 z"
         style="font-style:italic;font-variant:normal;font-weight:bold;font-stretch:normal;font-size:10.58333302px;line-height:89.99999762%;font-family:'TeX Gyre Adventor';-inkscape-font-specification:'TeX Gyre Adventor, Bold Italic';font-variant-ligatures:normal;font-variant-caps:normal;font-variant-numeric:normal;font-feature-settings:normal;text-align:start;letter-spacing:0px;word-spacing:0px;writing-mode:lr-tb;text-anchor:start;opacity:1;fill:#fefefe;fill-opacity:1;stroke:none;stroke-width:0.26458332px;stroke-linecap:butt;stroke-linejoin:miter;stroke-opacity:1" />
    </g>
  </g>
</svg>
